<svg fill="currentColor" xmlns="http://www.w3.org/2000/svg" x="0px" y="0px" viewBox="0 0 418.9 420.9"
  enableBackground="new 0 0 418.9 420.9;">
  <g id="WA_Logo">
    <g>
      <path className="st0" d="M357.8,61.2C318.5,21.7,266.1,0,210.3,0C95.4,0,1.8,93.6,1.7,208.5c0,36.8,9.6,72.6,27.8,104.3L0,420.9
            l110.6-29c30.5,16.6,64.8,25.4,99.7,25.4h0.1c0,0,0,0,0,0c114.9,0,208.5-93.6,208.6-208.6C418.9,153,397.2,100.6,357.8,61.2z
            M210.3,382L210.3,382c-31.2,0-61.7-8.4-88.3-24.2l-6.3-3.8l-65.6,17.2l17.5-64l-4.1-6.6c-17.4-27.6-26.5-59.5-26.5-92.2
            C37,113,114.8,35.2,210.4,35.2c46.3,0,89.8,18.1,122.6,50.8c32.7,32.8,50.7,76.3,50.7,122.6C383.6,304.3,305.8,382,210.3,382z
            M305.4,252.2c-5.2-2.6-30.8-15.2-35.6-17c-4.8-1.7-8.3-2.6-11.7,2.6c-3.5,5.2-13.5,17-16.5,20.4c-3,3.5-6.1,3.9-11.3,1.3
            c-5.2-2.6-22-8.1-41.9-25.9c-15.5-13.8-25.9-30.9-29-36.1c-3-5.2-0.3-8,2.3-10.6c2.3-2.3,5.2-6.1,7.8-9.1c2.6-3,3.5-5.2,5.2-8.7
            c1.7-3.5,0.9-6.5-0.4-9.1c-1.3-2.6-11.7-28.3-16.1-38.7c-4.2-10.2-8.5-8.8-11.7-8.9c-3-0.2-6.5-0.2-10-0.2
            c-3.5,0-9.1,1.3-13.9,6.5c-4.8,5.2-18.2,17.8-18.2,43.5c0,25.7,18.7,50.4,21.3,53.9c2.6,3.5,36.7,56.1,89,78.7
            c12.4,5.4,22.1,8.6,29.7,11c12.5,4,23.8,3.4,32.8,2.1c10-1.5,30.8-12.6,35.2-24.8c4.3-12.2,4.3-22.6,3-24.8
            C314.1,256.1,310.6,254.8,305.4,252.2z" />
    </g>
  </g>
</svg>