<svg width="240" height="240" viewBox="0 0 240 240" xmlns="http://www.w3.org/2000/svg">
  <path
    d="M120 20c55.228 0 100 44.772 100 100s-44.772 100-100 100S20 175.228 20 120 64.772 20 120 20Zm0 70c-16.569 0-30 13.431-30 30 0 16.569 13.431 30 30 30 16.569 0 30-13.431 30-30 0-16.569-13.431-30-30-30Zm0 10c11.046 0 20 8.954 20 20s-8.954 20-20 20-20-8.954-20-20 8.954-20 20-20Zm30.847-18.665a5 5 0 1 0 0 10 5 5 0 0 0 0-10ZM149.615 65h-59.23C76.365 65 65 76.365 65 90.385v59.23C65 163.635 76.365 175 90.385 175h59.23c14.02 0 25.385-11.365 25.385-25.385v-59.23C175 76.365 163.635 65 149.615 65Z"
    fill="#000" fill-rule="evenodd" />
</svg>