<svg width="240" height="240" viewBox="0 0 240 240" xmlns="http://www.w3.org/2000/svg">
  <path
    d="M120 20c55.228 0 100 44.772 100 100s-44.772 100-100 100S20 175.228 20 120 64.772 20 120 20Zm30.695 75c-9.146 0-15.336 4.243-18.858 8.235l-.388.451-.364.447c-.354.445-.673.882-.959 1.305l-.275.418-.129.205h-.416l-.974-9.52H110l.158 3.666.09 2.311.083 2.4.05 1.65.067 2.557.036 1.758.042 2.723.018 1.873c.003.317.005.635.006.955l.005 1.946V165h21.11v-39.479c0-1.96.141-3.921.696-5.32 1.529-3.92 5-7.98 10.832-7.98 7.534 0 10.61 5.854 10.695 14.474l.001.365V165H175v-40.46C175 104.382 164.585 95 150.695 95ZM95 95H75v70h20V95Zm-9.939-30C78.975 65 75 69.342 75 75c0 5.525 3.851 10 9.813 10C91.15 85 95 80.525 95 75c-.123-5.658-3.851-10-9.939-10Z"
    fill="currentColor" fill-rule="evenodd" />
</svg>